HIERARCHY
ROOT Bip001_Pelvis
{
  OFFSET 33.2923 95.8902 -28.781
  CHANNELS 6 Xposition Yposition Zposition Zrotation Xrotation Yrotation
  JOINT Bip001_Spine
  {
    OFFSET 1.4188e-005 10.2191 -0.0116013
    CHANNELS 3 Zrotation Xrotation Yrotation
    JOINT Bip001_L_Thigh
    {
      OFFSET 11.0458 -10.2192 0.0116197
      CHANNELS 3 Zrotation Xrotation Yrotation
      JOINT Bip001_L_Calf
      {
        OFFSET -0.707118 -44.0221 0.360014
        CHANNELS 3 Zrotation Xrotation Yrotation
        JOINT Bip001_L_Foot
        {
          OFFSET -0.651902 -40.5938 -3.56146
          CHANNELS 3 Zrotation Xrotation Yrotation
          JOINT Bip001_L_Toe0
          {
            OFFSET 0.0530839 -10.2181 13.1504
            CHANNELS 3 Zrotation Xrotation Yrotation
            End Site
            {
              OFFSET -1.02532e-005 0 7.55606
            }
          }
        }
      }
    }
    JOINT Bip001_R_Thigh
    {
      OFFSET -11.0458 -10.2191 0.0115893
      CHANNELS 3 Zrotation Xrotation Yrotation
      JOINT Bip001_R_Calf
      {
        OFFSET 0.706994 -44.0221 0.35984
        CHANNELS 3 Zrotation Xrotation Yrotation
        JOINT Bip001_R_Foot
        {
          OFFSET 0.651786 -40.5938 -3.5613
          CHANNELS 3 Zrotation Xrotation Yrotation
          JOINT Bip001_R_Toe0
          {
            OFFSET -0.0531479 -10.2181 13.1504
            CHANNELS 3 Zrotation Xrotation Yrotation
            End Site
            {
              OFFSET -1.02894e-005 0 7.55606
            }
          }
        }
      }
    }
    JOINT Bip001_Spine1
    {
      OFFSET 1.87041e-005 14.5736 1.08638
      CHANNELS 3 Zrotation Xrotation Yrotation
      JOINT Bip001_Spine2
      {
        OFFSET 2.24614e-005 14.5058 -1.69078
        CHANNELS 3 Zrotation Xrotation Yrotation
        JOINT Bip001_Neck
        {
          OFFSET 2.20278e-005 15.3945 -0.489414
          CHANNELS 3 Zrotation Xrotation Yrotation
          JOINT Bip001_L_Clavicle
          {
            OFFSET 6.06036 -0.000579998 0.00836775
            CHANNELS 3 Zrotation Xrotation Yrotation
            JOINT Bip001_L_UpperArm
            {
              OFFSET 11.5509 -0.0600302 0.00193952
              CHANNELS 3 Zrotation Xrotation Yrotation
              JOINT Bip001_L_Forearm
              {
                OFFSET 25.9523 0.0806089 -2.15551
                CHANNELS 3 Zrotation Xrotation Yrotation
                JOINT Bip001_L_Hand
                {
                  OFFSET 32.2476 0.153767 1.63968
                  CHANNELS 3 Zrotation Xrotation Yrotation
                  JOINT Bip001_L_Finger0
                  {
                    OFFSET 6.04639 -2.20976 5.90322
                    CHANNELS 3 Zrotation Xrotation Yrotation
                    End Site
                    {
                      OFFSET 4.22376 -1.43895 0.606486
                    }
                  }
                  JOINT Bip001_L_Finger1
                  {
                    OFFSET 11.0826 -0.704819 -0.198153
                    CHANNELS 3 Zrotation Xrotation Yrotation
                    End Site
                    {
                      OFFSET 6.20028 -0.397518 -0.0787166
                    }
                  }
                }
              }
            }
          }
          JOINT Bip001_R_Clavicle
          {
            OFFSET -6.06036 -0.000563197 0.00835105
            CHANNELS 3 Zrotation Xrotation Yrotation
            JOINT Bip001_R_UpperArm
            {
              OFFSET -11.5509 -0.0599978 0.00190698
              CHANNELS 3 Zrotation Xrotation Yrotation
              JOINT Bip001_R_Forearm
              {
                OFFSET -25.9523 0.080682 -2.1559
                CHANNELS 3 Zrotation Xrotation Yrotation
                JOINT Bip001_R_Hand
                {
                  OFFSET -32.2476 0.153858 1.63991
                  CHANNELS 3 Zrotation Xrotation Yrotation
                  JOINT Bip001_R_Finger0
                  {
                    OFFSET -6.04641 -2.20974 5.90321
                    CHANNELS 3 Zrotation Xrotation Yrotation
                    End Site
                    {
                      OFFSET -4.22376 -1.43894 0.606474
                    }
                  }
                  JOINT Bip001_R_Finger1
                  {
                    OFFSET -11.0826 -0.704789 -0.198184
                    CHANNELS 3 Zrotation Xrotation Yrotation
                    End Site
                    {
                      OFFSET -6.20028 -0.397501 -0.0787338
                    }
                  }
                }
              }
            }
          }
          JOINT Bip001_Head
          {
            OFFSET 1.09673e-005 11.2744 2.05948
            CHANNELS 3 Zrotation Xrotation Yrotation
            End Site
            {
              OFFSET 2.89576e-005 20.8808 -2.77728e-005
            }
          }
        }
      }
    }
  }
}
MOTION
Frames:	16
Frame Time:	0.04
32.9277 95.912 -28.9849 0.63954 -0.143664 -0.312796 -0.0968483 2.85579 -0.626041 4.475 -3.75023 6.95999 -0.622082 6.92637 -9.87848 4.89598 -1.56054 -0.17061 -3.18464 -4.65486 5.11695 -3.68001 -5.13486 -0.821518 0.0569689 11.3344 0.304138 -5.03806 -9.84054 3.57405 2.01854 -6.88337 2.07393 -0.141252 5.71235 -1.25011 -0.141252 5.71235 -1.25011 -1.09067 3.48602 -1.82573 -23.2339 -1.28852 -4.79195 -49.4084 41.1471 -2.14423 12.7647 0.178743 -24.6634 7.833 0.91987 -2.09264 -3.18055e-015 -6.36111e-015 -0 -0 -3.18056e-015 -0 29.5428 3.89713 17.0315 44.644 37.5483 4.47372 -12.5117 -3.54071 12.586 -7.8215 2.6409 0.152632 -1.59028e-015 -9.54166e-015 -1.59028e-015 -0 -6.36111e-015 -0 1.2272 9.4222 -2.49715 
32.9122 95.9156 -29.0724 0.63962 -0.0818272 -0.493491 -0.0989168 2.82846 -0.590171 4.46565 -3.81425 6.9177 -0.562754 6.92178 -9.68748 4.7453 -1.60655 -0.170614 -3.24887 -4.58143 5.14138 -3.68707 -5.31596 -0.553137 0.140999 11.4485 0.229865 -5.0297 -9.81937 3.53826 1.97585 -6.7549 2.04105 -0.168936 5.65778 -1.1776 -0.168926 5.65779 -1.1776 -1.21461 3.65937 -1.86636 -23.0544 -1.43929 -4.90018 -49.2453 41.1421 -2.46351 12.7717 0.258833 -24.7491 7.7876 1.02116 -2.15736 3.18055e-015 3.18055e-015 -0 3.18055e-015 0 -0 29.8164 3.82821 17.2161 43.0538 37.1871 6.01374 -13.1371 -4.26985 14.6294 -8.74094 1.94104 0.845023 -8.82781e-032 3.18055e-015 1.59028e-015 -8.82782e-032 3.18056e-015 1.59028e-015 1.9185 9.02846 -2.77972 
32.8545 95.9204 -29.0894 0.629845 -0.170271 -0.490619 -0.104196 2.82476 -0.563594 4.50647 -3.69434 6.76776 -0.577155 6.84663 -9.54488 4.7073 -1.56022 -0.17061 -3.20212 -4.59738 5.11569 -3.65367 -5.195 -0.400262 0.205804 11.3762 0.218036 -5.05138 -9.78638 3.38748 1.91952 -6.66703 2.08711 -0.177612 5.65352 -1.12418 -0.177605 5.65353 -1.12418 -1.0578 3.7277 -2.02997 -23.1321 -1.54262 -4.88113 -49.1621 41.007 -2.75419 12.8425 0.523582 -24.8561 7.9325 0.872071 -2.29958 3.18055e-015 0 -0 3.18055e-015 -3.18056e-015 -0 29.6078 3.81546 17.3456 41.966 36.4637 7.45055 -14.1419 -3.73796 16.6015 -9.14119 1.67331 1.96005 3.18055e-015 0 -0 3.18055e-015 3.18056e-015 -0 2.04406 8.97845 -2.92648 
32.7848 95.9132 -29.0929 0.582412 -0.262864 -0.432147 -0.109357 2.82586 -0.534726 4.60188 -3.71731 7.46434 -0.448448 7.07118 -10.2658 4.52309 -1.79031 -0.154415 -3.23247 -4.48946 5.1332 -3.57854 -5.07343 -0.416069 0.240478 11.3405 0.191207 -5.05353 -9.79927 3.37447 1.83882 -6.61419 2.31892 -0.186266 5.65509 -1.06618 -0.186263 5.6551 -1.06618 -0.646813 3.69831 -2.27183 -23.5077 -1.58002 -4.79778 -48.9165 40.8873 -3.07791 12.7259 0.379102 -25.0083 8.04838 0.944701 -2.29219 -3.18055e-015 9.54166e-015 -0 -6.36111e-015 9.54167e-015 1.59028e-015 29.0785 3.90669 17.5173 41.1302 35.9804 8.69739 -15.254 -3.1196 18.29 -10.2442 1.36408 2.74217 3.18055e-015 -9.54166e-015 -0 3.18055e-015 -6.36111e-015 -0 1.61706 9.24127 -2.90358 
32.7083 95.9193 -29.0921 0.56774 -0.309592 -0.377195 -0.114843 2.82875 -0.503747 4.69658 -3.65598 7.0414 -0.529861 7.00068 -9.91145 4.37351 -1.83804 -0.153159 -3.31345 -4.42224 5.18572 -3.50234 -4.98245 0.632632 0.505159 11.2293 -0.00482323 -5.32011 -9.65958 2.44247 1.82482 -6.57132 2.30649 -0.205118 5.65245 -1.00367 -0.205119 5.65247 -1.00367 -0.275054 3.81272 -2.49752 -23.8903 -1.74601 -4.77052 -48.6671 40.709 -3.26585 12.6617 0.388214 -25.2248 8.20602 0.938981 -2.33911 1.76556e-031 3.18055e-015 -3.18055e-015 5.29669e-031 9.54167e-015 -3.18055e-015 28.6661 3.94423 17.9197 40.4294 35.9205 9.4519 -16.4696 -2.30049 19.7061 -11.4749 0.913432 3.10567 -6.36111e-015 0 3.18055e-015 -6.36111e-015 0 -0 0.984232 9.40896 -2.81786 
32.6244 95.9203 -29.0637 0.551822 -0.424676 -0.289307 -0.121523 2.83205 -0.473132 4.76635 -3.5236 6.92295 -0.541292 6.94741 -9.91092 4.42712 -1.73649 -0.152971 -3.23746 -4.50729 5.12835 -3.44058 -4.8247 -0.666786 0.223991 11.258 0.198068 -5.05337 -9.82804 3.41602 1.826 -6.5625 2.30835 -0.221039 5.66704 -0.941991 -0.220342 5.66707 -0.94195 0.0451282 3.75382 -2.73366 -24.189 -1.79038 -4.56931 -48.5585 40.716 -3.38725 12.6435 0.264068 -25.3527 8.21268 1.01177 -2.38005 3.18055e-015 -3.18055e-015 -0 8.82782e-032 3.18056e-015 -1.59028e-015 28.2021 4.08339 18.174 40.0771 36.3135 9.79017 -17.5481 -2.45333 20.879 -11.911 0.814065 3.22961 -3.18055e-015 -1.59028e-014 -9.54166e-015 -3.18055e-015 -1.59028e-014 -6.36111e-015 0.154977 9.78795 -2.69368 
32.5737 95.9152 -29.0512 0.661577 -0.424803 -0.13262 -0.155963 2.81568 -0.445304 4.69631 -3.47994 6.7458 -0.505853 6.82378 -9.94467 4.37067 -1.65463 -0.154708 -3.25682 -4.52335 5.13339 -3.50871 -4.83613 -0.781009 0.267344 11.4074 0.153408 -5.06266 -9.94319 3.37334 1.83333 -6.59928 2.30994 -0.290509 5.63247 -0.884526 -0.290509 5.63248 -0.884528 0.360427 3.85828 -2.91977 -24.4358 -1.95794 -4.50898 -48.5186 40.6376 -3.42257 12.6883 0.440863 -25.4356 8.18834 0.902768 -2.41437 -6.36111e-015 -6.36111e-015 -0 8.82782e-032 -3.18056e-015 1.59028e-015 27.8403 4.06199 18.4186 39.8617 36.484 9.80216 -18.2606 -2.59744 21.714 -11.8813 0.812341 3.33265 9.54166e-015 0 -3.18055e-015 9.54166e-015 0 -3.18055e-015 -0.686556 9.82334 -2.51933 
32.5161 95.9183 -29.0229 0.77148 -0.412436 0.0354565 -0.183505 2.79573 -0.41239 4.6125 -3.40786 6.64398 -0.425449 6.65304 -9.97224 4.16672 -1.63499 -0.149276 -3.25672 -4.42168 5.13325 -3.57128 -4.80273 -0.92098 0.29294 11.4746 0.163696 -5.11599 -10.0481 3.30525 1.83504 -6.59286 2.31127 -0.347474 5.59159 -0.817262 -0.347474 5.5916 -0.817262 0.405148 3.90218 -2.95684 -24.4791 -1.9984 -4.54701 -48.586 40.5756 -3.37051 12.6255 0.313201 -25.351 8.32637 0.833389 -2.37145 -6.36111e-015 6.36111e-015 -0 -3.18055e-015 6.36111e-015 -0 27.8591 4.04958 18.4607 39.8328 36.7012 9.20499 -18.8039 -2.86609 22.404 -11.7619 0.783265 3.34979 -3.18055e-015 9.54166e-015 -0 3.53113e-031 6.36111e-015 -3.18055e-015 -1.20899 9.83738 -2.3826 
32.4467 95.9128 -28.9367 0.791349 -0.59737 0.228521 -0.190413 2.81142 -0.38142 4.5886 -3.1336 6.7888 -0.381196 6.42829 -10.5309 4.65046 -1.16442 -0.187195 -3.16822 -4.7281 5.0576 -3.56223 -4.53527 -1.23902 0.294433 11.4781 0.213554 -5.10521 -10.1327 3.35168 1.83703 -6.60211 2.31306 -0.365392 5.62405 -0.754943 -0.364425 5.62405 -0.754782 0.339765 3.85088 -2.93437 -24.4262 -1.93749 -4.55186 -48.6545 40.4748 -3.2413 12.4831 0.193192 -25.332 8.27402 0.814116 -2.23862 3.18055e-015 -6.36111e-015 4.77083e-015 3.18055e-015 -6.36111e-015 3.18055e-015 27.8663 4.06277 18.3895 40.2812 37.2385 8.14852 -19.4095 -3.04603 22.8691 -11.5253 0.831496 3.26347 -0 -3.18055e-015 -0 -0 -3.18056e-015 -0 -1.52021 9.83733 -2.28645 
32.4224 95.9099 -28.8579 0.954011 -0.698084 0.433349 -0.220059 2.81231 -0.359399 4.41959 -2.88759 6.8908 -0.275991 6.14389 -10.8606 4.50245 -1.10775 -0.184344 -3.16975 -4.71447 5.09948 -3.71881 -4.37294 -1.38334 0.35855 11.5593 0.129582 -5.12553 -10.3029 3.33625 1.84083 -6.61614 2.32704 -0.422035 5.62593 -0.709329 -0.422586 5.62594 -0.709412 0.109199 3.67785 -2.82987 -24.2907 -1.74543 -4.5034 -48.8252 40.4309 -2.9885 12.4374 -0.00338286 -25.2956 8.16576 0.782385 -2.16295 1.76556e-031 6.36111e-015 -1.59028e-015 1.76556e-031 6.36111e-015 -1.59028e-015 28.1612 4.19889 18.2206 40.7458 37.7094 6.51888 -19.7871 -2.9372 23.166 -11.3901 0.838876 3.18123 3.18055e-015 0 -3.18055e-015 3.18055e-015 0 -3.18055e-015 -1.64849 9.88757 -2.21913 
32.3509 95.9091 -28.9189 1.08834 -0.320689 0.714534 -0.24523 2.71746 -0.351092 4.39434 -3.16521 5.92594 -0.427741 5.9291 -10.1242 4.34722 -1.02187 -0.182176 -3.22103 -4.63018 5.14646 -3.7989 -4.71549 -1.24745 0.470436 11.7204 0.0602683 -5.27136 -10.3678 2.97834 1.84397 -6.61681 2.29896 -0.474607 5.43636 -0.692338 -0.474614 5.43635 -0.692033 -0.0877382 3.34317 -2.74013 -24.2115 -1.42086 -4.34988 -48.9641 40.4233 -2.68473 12.26 -0.428228 -25.3109 8.26888 0.798585 -1.98844 6.36111e-015 -6.36111e-015 -1.59028e-015 0 0 -0 28.4791 4.48138 17.9608 41.3941 38.3714 4.4361 -19.9804 -2.92276 23.2198 -11.2274 0.948166 3.0475 -3.18055e-015 -3.18055e-015 -6.36111e-015 -6.36111e-015 -3.18056e-015 -3.18055e-015 -1.67441 10.0505 -2.18123 
32.3466 95.8985 -28.9363 1.29956 -0.122356 0.836111 -0.295676 2.65932 -0.308963 4.16936 -3.21988 6.1893 -0.320696 5.65918 -10.6361 4.50173 -0.712307 -0.204018 -3.21354 -4.74504 5.10997 -4.01608 -5.011 -1.4485 0.547619 12.0997 0.0554004 -5.29742 -10.5771 2.97825 1.84905 -6.6424 2.3076 -0.577936 5.32018 -0.605148 -0.577911 5.32018 -0.605148 -0.294778 3.05237 -2.6471 -23.9453 -1.10625 -4.33691 -49.2965 40.24 -2.39006 12.1085 -0.69857 -25.2378 8.23739 0.739236 -1.85623 0 0 -1.59028e-015 -3.18055e-015 3.18056e-015 -0 28.7403 4.68166 17.6461 42.2421 39.2964 2.15545 -20.0046 -3.54424 22.914 -10.4922 1.30767 2.7519 3.18055e-015 -3.18055e-015 -0 3.18055e-015 -6.36111e-015 -0 -1.55275 10.1675 -2.18978 
32.3282 95.8883 -28.9369 1.43678 -0.0195951 0.961442 -0.328418 2.62481 -0.278443 4.02676 -3.21096 5.79582 -0.27817 5.43969 -10.4587 4.44923 -0.565984 -0.205002 -3.19674 -4.76876 5.14677 -4.13399 -5.19127 -1.94302 0.484755 12.4085 0.174709 -5.30086 -10.7763 3.16188 1.85429 -6.65821 2.31842 -0.644643 5.25115 -0.542649 -0.645064 5.25116 -0.54266 -0.478781 2.81444 -2.58486 -23.927 -0.901125 -4.12569 -49.2173 40.4666 -2.23806 12.1238 -0.675146 -25.106 8.17777 0.666908 -1.83512 -3.18055e-015 6.36111e-015 -0 -6.36111e-015 1.59028e-014 1.59028e-015 28.8536 4.85673 17.4813 42.847 40.4069 0.165399 -19.7762 -4.24993 22.0369 -9.11293 1.59494 2.53234 -3.18055e-015 -3.18055e-015 -3.18055e-015 -8.82782e-032 -3.18056e-015 -1.59028e-015 -1.44299 10.3001 -2.21652 
32.3026 95.8777 -28.9287 1.4813 0.0551846 1.12923 -0.333634 2.60145 -0.257431 3.99738 -3.30428 5.35812 -0.296684 5.44786 -10.1917 4.57903 -0.481677 -0.21844 -3.16968 -4.79605 5.11191 -4.16542 -5.2524 -2.36566 0.445313 12.5331 0.359052 -5.35336 -10.8725 3.20493 1.87337 -6.7049 2.32039 -0.660559 5.20434 -0.50036 -0.66056 5.20434 -0.500361 -0.483605 2.71182 -2.61093 -23.9078 -0.824968 -4.04199 -49.4454 40.4286 -2.10573 12.1412 -0.607852 -24.8757 8.17875 0.689951 -1.73218 -3.18055e-015 0 -1.59028e-015 0 6.36111e-015 -0 28.8597 4.94769 17.419 43.5908 41.5987 -2.26628 -19.8 -3.83975 21.3057 -8.37068 1.46083 2.13562 6.36111e-015 0 -1.59028e-015 -8.82782e-032 -3.18056e-015 -1.59028e-015 -1.48769 10.3442 -2.22826 
32.287 95.8717 -28.9188 1.53814 0.158105 1.33285 -0.336439 2.59382 -0.251475 3.94695 -3.4689 5.5297 -0.230205 5.54271 -10.4953 4.35525 -0.655795 -0.194493 -3.21821 -4.66161 5.16597 -4.1925 -5.34246 -0.659192 0.892007 12.5511 0.0557901 -5.81394 -10.6987 1.59995 1.88074 -6.71816 2.32087 -0.662485 5.18905 -0.488432 -0.662484 5.18905 -0.488432 -0.334875 2.77841 -2.73431 -24.0194 -0.924907 -4.01712 -49.6511 40.3404 -1.99472 12.076 -0.757989 -24.6622 8.10579 0.78037 -1.63969 3.18055e-015 -6.36111e-015 -3.18055e-015 -0 -3.18056e-015 -0 28.7919 4.92822 17.4701 44.2107 42.5611 -4.58983 -19.7545 -3.96819 20.2356 -6.93658 1.53521 1.93235 -6.36111e-015 -3.18055e-015 -0 -6.36111e-015 -3.18056e-015 -1.59028e-015 -1.7075 10.2958 -2.23559 
32.0035 95.8762 -28.5637 0.784549 -0.815408 2.01104 -0.182369 2.7736 -0.320594 5.04378 -3.06641 6.2065 -0.532217 6.63494 -11.6694 4.20243 -1.53537 -0.154488 -3.28723 -4.50567 5.19754 -3.1719 -3.53022 -1.52618 0.414596 11.1275 0.278142 -5.75493 -10.2525 1.82879 1.88813 -6.72744 2.30798 -0.34973 5.54819 -0.633473 -0.34973 5.54819 -0.633473 -0.21227 2.92736 -2.85282 -24.2306 -1.12993 -3.90664 -49.4555 40.4026 -2.00264 11.9565 -0.897707 -24.6563 8.11698 0.802962 -1.55598 -6.36111e-015 0 -0 -6.36111e-015 0 1.59028e-015 28.7911 4.85353 17.5775 44.73 43.2915 -6.82734 -19.8433 -2.08541 19.7377 -6.73722 1.11044 1.26253 -3.18055e-015 3.18055e-015 -0 0 3.18056e-015 -0 -1.76436 10.1384 -2.29815 
